<?xml version="1.0" encoding="utf-8"?>
<!-- Generator: Adobe Illustrator 19.0.0, SVG Export Plug-In . SVG Version: 6.00 Build 0)  -->
<svg version="1.1" id="Layer_1" xmlns="http://www.w3.org/2000/svg" xmlns:xlink="http://www.w3.org/1999/xlink" x="0px" y="0px"
	 viewBox="0 0 500 500" style="enable-background:new 0 0 500 500;" xml:space="preserve">
<style type="text/css">
	.st0{fill:#F6D119;}
	.st1{fill:#6BCCE5;}
	.st2{fill:#F8A772;}
	.st3{fill:#F6D019;}
	.st4{fill:#E28CB7;}
	.st5{fill:#F7D119;}
	.st6{fill:#86C448;}
	.st7{fill:#58595B;}
	.st8{font-family:'MyriadPro-Regular';}
	.st9{font-size:3.6539px;}
	.st10{fill:#6ACCE5;}
	.st11{font-family:'Nunito-Bold';}
	.st12{font-size:64.473px;}
</style>
<g id="XMLID_2_">
	<path id="XMLID_56_" class="st0" d="M61.3,243.2c4-0.2,8-0.4,12-0.6c5.1-0.2,10.2-0.5,15.3-0.7c3.6-0.2,7.3-0.3,11-0.5
		c0,1.9,0.1,3.8,0,5.6c-0.4,5.7-1.7,11.1-4,16.3c-2.3,5.1-5.3,9.7-9.2,13.8c-0.1,0.1-0.2,0.2-0.4,0.3c-8.1-3.3-14.5-8.6-19.1-16.1
		C63.6,255.9,61.7,249.8,61.3,243.2z"/>
	<path id="XMLID_55_" class="st1" d="M104.3,201.5c-0.2-4.7-0.3-9.4-0.5-14.1c24.1-1.5,48.7,17.7,49.3,44.3c-4.7,0.1-9.4,0.3-14,0.4
		c-1.5-6.9-4.7-13-9.5-18.2C122.7,206.7,114.3,202.5,104.3,201.5z"/>
	<path id="XMLID_54_" class="st2" d="M62.8,230.2c-11-5.8-18.4-14.6-22.4-26.5c1.5-0.5,2.8-0.9,4.2-1.4c13.5-4.2,27-8.4,40.4-12.7
		c0.8-0.2,1-0.1,1.3,0.7c1.3,4.2,2.6,8.4,3.9,12.5c-6.2,1.7-11.6,4.7-16.3,8.9c-3.4,3.1-6.2,6.6-8.2,10.7
		C64.6,225,63.8,227.6,62.8,230.2z"/>
	<path id="XMLID_53_" class="st3" d="M103.1,280.2c0.1-3,0.3-6,0.4-9c0.2-3,0.3-6,0.5-8.9c0.3-5.5,0.6-11,0.9-16.5
		c0.1-1.4,0.1-2.8,0.2-4.4c2.1,0.3,4,0.4,5.9,0.7c9.8,1.8,18.3,6,25.5,13c0.2,0.2,0.3,0.4,0.5,0.6
		C130.5,270.4,119.2,278.6,103.1,280.2z"/>
	<path id="XMLID_52_" class="st4" d="M103.1,280.2c16.1-1.6,27.4-9.8,34-24.6c3.2,3.1,5.7,6.5,7.8,10.4c2.8,5,4.5,10.3,5.2,16
		c0.3,2.6,0.3,5.2,0.4,8c-16-0.9-31.9-1.7-47.9-2.6C102.9,285,103,282.6,103.1,280.2z"/>
	<path id="XMLID_51_" class="st5" d="M62.8,230.2c1-2.6,1.8-5.2,3-7.7c2-4.1,4.9-7.6,8.2-10.7c4.7-4.3,10.1-7.3,16.3-8.9
		c1.2,3.7,2.4,7.5,3.6,11.2c2,6.4,4,12.7,6,19.3c-1.9,0.5-3.7,1-5.6,1.3c-4.2,0.8-8.4,1.1-12.7,0.8C75,235,68.7,233.4,62.8,230.2z"
		/>
	<path id="XMLID_50_" class="st0" d="M104.3,201.5c10,1,18.4,5.2,25.2,12.5c4.8,5.2,8,11.2,9.5,18.2c-2.3,0.1-4.5,0.2-6.8,0.3
		c-6.7,0.2-13.5,0.4-20.2,0.6c-1.9,0.1-3.9,0.1-5.8,0.2c-0.3,0-0.6,0-0.9,0c-0.1-2-0.2-3.9-0.2-5.9c-0.3-8.4-0.5-16.7-0.8-25.1
		C104.3,202,104.3,201.8,104.3,201.5z"/>
	<path id="XMLID_49_" class="st6" d="M61.3,243.2c0.4,6.6,2.3,12.6,5.7,18.2c4.6,7.5,11,12.8,19.1,16.1
		c-8.3,8.5-18.4,13.1-30.4,13.8c-0.7-15.9-1.4-31.8-2.1-47.8C56.2,243.4,58.8,243.3,61.3,243.2z"/>
	<text id="XMLID_7_" transform="matrix(1 0 0 1 156.5038 290.0039)" class="st7 st8 st9">TM</text>
</g>
<text id="XMLID_10_" transform="matrix(1 0 0 1 171.4559 277.522)" class="st10 st11 st12">PieShares</text>
</svg>
